<svg aria-hidden="true" style="position:absolute;width:0;height:0" xmlns="http://www.w3.org/2000/svg" overflow="hidden"><defs><symbol id="icon-arrow_right" viewBox="0 0 75 32"><path stroke-linejoin="round" stroke-linecap="round" stroke-width="2.667" d="M2.667 16.235h67.772M58.446 2.667L72 16.221 58.446 29.775"/></symbol><symbol id="icon-arrows" viewBox="0 0 27 32"><path stroke-linejoin="round" stroke-linecap="round" stroke-width="2.667" d="M20 1.333l5.333 5.333L20 11.999"/><path stroke-linejoin="round" stroke-linecap="round" stroke-width="2.667" d="M1.333 14.667V12a5.332 5.332 0 015.333-5.333h18.667M6.667 30.667l-5.333-5.333 5.333-5.333"/><path stroke-linejoin="round" stroke-linecap="round" stroke-width="2.667" d="M25.333 17.333V20A5.332 5.332 0 0120 25.333H1.333"/></symbol><symbol id="icon-bird" viewBox="0 0 53 32"><path stroke-linejoin="round" stroke-linecap="round" stroke-width="5.333" d="M5.333 5.333l21.333 21.333L47.999 5.333"/></symbol><symbol id="icon-cart-2" viewBox="0 0 35 32"><path stroke-linejoin="round" stroke-linecap="round" stroke-width="2.909" d="M1.455 1.455h5.818l3.898 19.476a2.906 2.906 0 002.909 2.341h14.138a2.91 2.91 0 002.909-2.341l2.327-12.204H8.727M13.091 30.545a1.455 1.455 0 100-2.91 1.455 1.455 0 000 2.91zM29.091 30.545a1.455 1.455 0 100-2.91 1.455 1.455 0 000 2.91z"/></symbol><symbol id="icon-cart" viewBox="0 0 32 32"><path fill="var(--color1, #f3f3f3)" d="M32 16c0 8.837-7.163 16-16 16S0 24.837 0 16 7.163 0 16 0s16 7.163 16 16z"/><path fill="var(--color2, #fff)" d="M29.818 16c0 7.632-6.187 13.818-13.818 13.818S2.182 23.631 2.182 16C2.182 8.368 8.369 2.182 16 2.182S29.818 8.369 29.818 16z"/><path fill="none" stroke="var(--color3, #000)" stroke-linejoin="round" stroke-linecap="round" stroke-width="1.091" d="M14.05 22.017a.53.53 0 100-1.058.53.53 0 000 1.058zM19.868 22.017a.53.53 0 100-1.058.53.53 0 000 1.058zM9.818 10.909h2.116l1.418 7.082a1.057 1.057 0 001.058.852h5.141a1.058 1.058 0 001.058-.852l.846-4.438h-8.992"/></symbol><symbol id="icon-cart3" viewBox="0 0 33 32"><path fill="none" stroke="var(--color4, #030d15)" stroke-linejoin="round" stroke-linecap="round" stroke-width="2.182" d="M9.917 29.488a1.058 1.058 0 100-2.117 1.058 1.058 0 000 2.117zM21.554 29.488a1.058 1.058 0 100-2.117 1.058 1.058 0 000 2.117zM1.455 7.273h4.231l2.835 14.165c.097.487.362.924.748 1.236s.871.477 1.367.467h10.282a2.11 2.11 0 002.115-1.703l1.692-8.875H6.742"/><path fill="var(--color5, #c72535)" d="M33.455 11.636c0 4.82-3.907 8.727-8.727 8.727s-8.727-3.907-8.727-8.727 3.907-8.727 8.727-8.727 8.727 3.907 8.727 8.727z"/><path fill="var(--color2, #fff)" d="M27.855 13.382c0 .776-.272 1.421-.815 1.935s-1.309.771-2.298.771c-.912 0-1.702-.16-2.371-.48v-1.149a4.949 4.949 0 002.342.567c.621 0 1.101-.16 1.44-.48.349-.32.524-.737.524-1.251s-.194-.907-.582-1.178c-.378-.281-.926-.422-1.644-.422h-.611v-1.004h.611c.543 0 .999-.15 1.367-.451.378-.31.567-.722.567-1.236s-.16-.902-.48-1.164c-.32-.262-.761-.393-1.324-.393-.669 0-1.309.199-1.92.596v-1.12c.562-.359 1.212-.538 1.949-.538.941 0 1.668.242 2.182.727.524.475.785 1.067.785 1.775 0 .514-.131.975-.393 1.382-.252.407-.63.713-1.135.916.553.126.989.383 1.309.771.33.378.495.853.495 1.425z"/></symbol><symbol id="icon-circle_black" viewBox="0 0 32 32"><path fill="var(--color6, #f4f9fc)" d="M32 16c0 8.837-7.163 16-16 16S0 24.837 0 16 7.163 0 16 0s16 7.163 16 16z"/><path fill="var(--color7, #15151d)" d="M27.2 16c0 6.186-5.014 11.2-11.2 11.2S4.8 22.186 4.8 16C4.8 9.814 9.814 4.8 16 4.8S27.2 9.814 27.2 16z"/></symbol><symbol id="icon-circle_blue" viewBox="0 0 32 32"><path fill="var(--color8, #2f80ed)" d="M32 16c0 8.837-7.163 16-16 16S0 24.837 0 16 7.163 0 16 0s16 7.163 16 16z"/></symbol><symbol id="icon-circle_grey" viewBox="0 0 32 32"><path fill="var(--color6, #f4f9fc)" stroke="var(--color4, #030d15)" stroke-width=".8" d="M31.6 16c0 8.616-6.984 15.6-15.6 15.6S.4 24.616.4 16 7.384.4 16 .4 31.6 7.384 31.6 16z"/><path fill="var(--color9, #c3d7e6)" d="M27.2 16c0 6.186-5.014 11.2-11.2 11.2S4.8 22.186 4.8 16C4.8 9.814 9.814 4.8 16 4.8S27.2 9.814 27.2 16z"/></symbol><symbol id="icon-facebook" viewBox="0 0 19 32"><path fill="none" stroke="var(--color2, #fff)" stroke-linejoin="round" stroke-linecap="round" stroke-width="1.882" d="M17.412 1.882h-4.235A7.06 7.06 0 006.119 8.94v4.235H1.884v5.647h4.235v11.294h5.647V18.822h4.235l1.412-5.647h-5.647V8.94a1.41 1.41 0 011.411-1.411h4.235V1.882z"/></symbol><symbol id="icon-heart" viewBox="0 0 35 32"><path stroke-linejoin="round" stroke-linecap="round" stroke-width="3.048" d="M30.92 3.98a8.375 8.375 0 00-5.928-2.456 8.387 8.387 0 00-5.927 2.456L17.45 5.595 15.835 3.98A8.383 8.383 0 003.979 15.836l13.47 13.47 13.47-13.47a8.381 8.381 0 000-11.854z"/></symbol><symbol id="icon-insta" viewBox="0 0 32 32"><path fill="none" stroke="var(--color2, #fff)" stroke-linejoin="round" stroke-linecap="round" stroke-width="1.882" d="M23.529 1.882H9.411a7.058 7.058 0 00-7.059 7.059v14.118a7.058 7.058 0 007.059 7.059h14.118a7.058 7.058 0 007.059-7.059V8.941a7.058 7.058 0 00-7.059-7.059z"/><path fill="none" stroke="var(--color2, #fff)" stroke-linejoin="round" stroke-linecap="round" stroke-width="1.882" d="M22.118 15.11a5.641 5.641 0 01-3.048 5.872 5.645 5.645 0 01-6.532-1.051 5.645 5.645 0 014.821-9.579 5.65 5.65 0 014.758 4.758zM24.235 8.235h.014"/></symbol><symbol id="icon-linkedin" viewBox="0 0 34 32"><path fill="none" stroke="var(--color2, #fff)" stroke-linejoin="round" stroke-linecap="round" stroke-width="2" d="M22.282 11a9 9 0 019 9v10.5h-6V20a3.004 3.004 0 00-3-3 3.004 3.004 0 00-3 3v10.5h-6V20a9 9 0 019-9v0zM7.282 12.5h-6v18h6v-18zM4.282 8a3 3 0 100-6 3 3 0 000 6z"/></symbol><symbol id="icon-logo1" viewBox="0 0 126 32"><path fill="var(--color10, #247cc0)" d="M43.5 20.238v1.956h-6.759V12.071h2.284v8.168H43.5zM44.971 12.071h2.284v10.123h-2.284V12.071zM56.377 22.194a61.446 61.446 0 00-2.112-3.442 38.552 38.552 0 00-2.425-3.208v6.634h-2.253V12.07h1.862c.329.329.673.72 1.064 1.189s.782.97 1.189 1.502c.407.532.813 1.08 1.205 1.659.407.563.782 1.111 1.127 1.643V12.07h2.269v10.123h-1.925zM66.61 22.194a21.26 21.26 0 00-.72-1.064c-.282-.375-.579-.767-.908-1.158s-.657-.767-1.017-1.111a9.43 9.43 0 00-1.048-.939v4.287h-2.284V12.07h2.284v3.802c.579-.61 1.189-1.267 1.784-1.925.61-.673 1.158-1.299 1.674-1.878h2.707c-.688.814-1.377 1.612-2.081 2.363s-1.44 1.518-2.206 2.284a16.376 16.376 0 012.347 2.41 32.045 32.045 0 012.175 3.067H66.61zM70.631 22.194V12.071h6.838v1.909h-4.553v1.987h4.052v1.878h-4.052v2.441h4.897v1.909h-7.182zM88.359 17.125c0 .876-.141 1.643-.407 2.3s-.657 1.189-1.158 1.627c-.501.423-1.111.751-1.831.97s-1.533.329-2.425.329c-.407 0-.892-.016-1.44-.047s-1.08-.11-1.612-.219v-9.873c.532-.094 1.08-.157 1.643-.204a27.595 27.595 0 011.471-.047c.861 0 1.659.094 2.363.297.704.188 1.314.501 1.815.923s.892.954 1.174 1.612c.266.626.407 1.408.407 2.331zm-6.587 3.207c.109.016.235.016.376.016h.501c1.142 0 1.987-.282 2.535-.861s.829-1.361.829-2.378c0-1.064-.266-1.862-.782-2.41-.532-.548-1.361-.814-2.503-.814h-.485c-.172 0-.329.016-.469.031v6.415zM97.434 12.071v1.94h-3.051v8.183h-2.284v-8.183h-3.051v-1.94h8.387zM98.905 22.194V12.071h6.838v1.909h-4.553v1.987h4.052v1.878h-4.052v2.441h4.897v1.909h-7.182zM112.377 22.398c-1.643 0-2.895-.454-3.771-1.377-.861-.923-1.299-2.222-1.299-3.896 0-.845.125-1.58.391-2.237s.626-1.22 1.08-1.659a4.45 4.45 0 011.643-1.033c.626-.235 1.314-.344 2.065-.344.423 0 .814.031 1.174.094.344.063.657.141.923.219s.485.172.657.25c.172.094.297.156.376.203l-.657 1.846a4.691 4.691 0 00-1.095-.422 5.488 5.488 0 00-1.408-.172c-.344 0-.688.063-1.033.172-.329.11-.626.297-.892.563s-.469.595-.626 1.001c-.156.407-.235.907-.235 1.486 0 .469.047.908.156 1.314s.266.751.501 1.048c.235.297.532.516.892.688.375.172.814.25 1.346.25.329 0 .626-.016.892-.063.266-.031.501-.078.704-.141.204-.047.391-.11.548-.188a5.63 5.63 0 00.422-.188l.626 1.831c-.329.188-.782.375-1.361.532a8.564 8.564 0 01-2.019.219zM123.346 12.071h2.284v10.123h-2.284v-4.303h-3.834v4.303h-2.284V12.071h2.284v3.88h3.834v-3.88z"/><path fill="var(--color11, #262262)" d="M5.445 8.822a4.247 4.247 0 01.916-2.153L5.132 5.39 1.345 7.576c-.437.256-.833.726-1.081 1.246h5.181z"/><path fill="var(--color12, #1c75bc)" d="M13.572 23.054l-3.053-9.447c-.256.049-.52.074-.792.074a4.19 4.19 0 01-1.477-.264l-2.978 5.759c.421.388.693.949.693 1.568 0 .083-.008.165-.016.248l6.889 2.756a2.57 2.57 0 01.734-.693z"/><path fill="var(--color13, #2b3990)" d="M3.845 18.631c.157 0 .305.017.454.05l2.978-5.759a4.295 4.295 0 01-1.823-3.003H.009v4.059l3.168 4.76a2.18 2.18 0 01.668-.107z"/><path fill="var(--color12, #1c75bc)" d="M14.826 22.707c.181 0 .363.025.536.058l3.671-7.632a3.121 3.121 0 01-1.304-2.549c0-.107.008-.223.016-.33l-4.059-1.172a4.31 4.31 0 01-2.12 2.186l3.053 9.447c.066 0 .14-.008.206-.008z"/><path fill="var(--color14, #2ea8e0)" d="M22.663 15.158a2.677 2.677 0 01-.569.313l.817 3.531a1.755 1.755 0 011.592 1.741c0 .281-.066.553-.19.792l2.368 2.368c.281-.454.462-.974.462-1.436v-2.822l-4.48-4.488zM12.392 25.141c0-.124.008-.247.025-.371l-6.881-2.756a2.184 2.184 0 01-.594.544l1.518 5.206 3.152 1.815 3.152-3.152a2.444 2.444 0 01-.371-1.287zM21.838 19.25l-.817-3.531h-.157c-.289 0-.577-.041-.841-.115l-3.671 7.631c.099.082.198.173.281.264l4.397-2.434a2.061 2.061 0 01-.033-.33c0-.619.338-1.18.842-1.485z"/><path fill="var(--color12, #1c75bc)" d="M26.269 7.964l-2.83 2.83c.355.511.569 1.13.569 1.799s-.206 1.287-.569 1.799l3.704 3.704V9.937c0-.668-.363-1.452-.875-1.972z"/><path fill="var(--color15, #5dcbec)" d="M16.113 27.204c-.371.231-.817.371-1.287.371s-.916-.132-1.287-.371l-2.945 2.945 1.617.932c.751.429 1.972.429 2.714 0l3.209-1.856-2.021-2.021z"/><path fill="var(--color12, #1c75bc)" d="M3.886 22.864h-.041a2.12 2.12 0 01-1.592-3.522L.001 15.959v6.501c0 .866.611 1.922 1.361 2.351l3.729 2.153-1.205-4.1z"/><path fill="var(--color15, #5dcbec)" d="M23.538 22.311c-.239.115-.503.19-.792.19-.462 0-.875-.173-1.188-.462l-4.397 2.434c.058.215.091.437.091.668 0 .47-.132.916-.371 1.287l2.236 2.236 6.658-3.845c.05-.033.107-.066.157-.099l-2.393-2.409z"/><path fill="var(--color13, #2b3990)" d="M14.042 9.375c0 .223-.016.446-.05.66l4.059 1.172a3.14 3.14 0 011.997-1.642l-.503-5.585-4.282-2.475-2.813 4.521a4.305 4.305 0 011.592 3.35z"/><path fill="var(--color11, #262262)" d="M7.161 5.91a4.322 4.322 0 014.364-.462l2.723-4.389c-.685-.148-1.485-.066-2.03.256L6.129 4.83 7.16 5.911z"/><path fill="var(--color13, #2b3990)" d="M25.353 7.329l-4.645-2.681.429 4.818c.561.05 1.089.248 1.526.553l2.69-2.69z"/><path fill="var(--color3, #000)" d="M5.948 20.999l6.889 2.756c.198-.281.445-.52.743-.693l-2.706-8.374a26.722 26.722 0 00-5.445 4.661 2.12 2.12 0 01.52 1.65zM14.826 22.707c.182 0 .363.025.536.058l3.671-7.631a3.12 3.12 0 01-1.303-2.549c0-.107.008-.223.016-.33l-1.221-.355a27.018 27.018 0 00-4.694 2.178l2.789 8.63c.066.008.14 0 .206 0zM22.094 15.48l.817 3.531a1.755 1.755 0 011.592 1.741c0 .281-.066.553-.19.792l2.368 2.368c.281-.454.462-.974.462-1.436v-2.822l-4.48-4.48a4.547 4.547 0 01-.569.305zM12.392 25.141c0-.124.008-.248.025-.371l-6.881-2.756a2.184 2.184 0 01-.594.544l1.518 5.206 3.152 1.815 3.152-3.152a2.444 2.444 0 01-.371-1.287zM16.633 23.516l4.397-2.434a2.073 2.073 0 01-.033-.33c0-.635.338-1.188.842-1.502l-.817-3.531h-.157c-.289 0-.577-.041-.841-.115l-3.671 7.631c.099.091.19.182.281.281zM24.008 12.593c0 .668-.206 1.287-.569 1.799l3.704 3.704v-7.615a25.934 25.934 0 00-3.366-.008l-.33.33c.347.503.561 1.122.561 1.79zM14.826 27.575c-.47 0-.916-.132-1.287-.371l-2.945 2.945 1.617.932c.751.429 1.972.429 2.714 0l3.209-1.856-2.03-2.029c-.363.247-.808.38-1.279.38zM3.886 22.864h-.041c-.338 0-.66-.082-.941-.223-.478.743-.924 1.51-1.328 2.294l3.506 2.029-1.196-4.1zM22.754 22.501c-.462 0-.875-.173-1.188-.462l-4.397 2.434c.058.215.091.437.091.668 0 .47-.132.916-.371 1.287l2.236 2.236 6.658-3.845c.049-.033.107-.066.157-.099l-2.401-2.401a1.785 1.785 0 01-.784.182z"/></symbol><symbol id="icon-logo2" viewBox="0 0 33 32"><path fill="var(--color10, #247cc0)" d="M2.466 31.212v.714H0v-3.694h.834v2.98h1.633zM3.003 28.232h.834v3.694h-.834v-3.694zM7.165 31.926c-.24-.422-.497-.839-.771-1.256-.28-.411-.571-.799-.885-1.17v2.421h-.822v-3.688h.679c.12.12.245.263.388.434a17.002 17.002 0 01.874 1.153c.148.206.285.405.411.599v-2.187h.828v3.694h-.702zM10.899 31.926a7.697 7.697 0 00-.594-.81c-.12-.142-.24-.28-.371-.405a3.585 3.585 0 00-.383-.343v1.564h-.834v-3.7h.834v1.387c.211-.223.434-.462.651-.702.223-.245.422-.474.611-.685h.988c-.251.297-.502.588-.759.862s-.525.554-.805.834c.297.245.582.537.856.879.274.337.537.714.794 1.119h-.988zM12.367 31.926v-3.694h2.495v.697h-1.661v.725h1.479v.685h-1.479v.891h1.787v.697h-2.621zM18.835 30.076c0 .32-.051.599-.148.839s-.24.434-.422.594c-.183.154-.405.274-.668.354s-.559.12-.885.12c-.148 0-.325-.006-.525-.017s-.394-.04-.588-.08v-3.603c.194-.034.394-.057.599-.074.206-.011.388-.017.537-.017.314 0 .605.034.862.108.257.069.48.183.662.337s.325.348.428.588c.097.228.148.514.148.851zm-2.403 1.171c.04.006.086.006.137.006h.183c.417 0 .725-.103.925-.314s.303-.497.303-.868c0-.388-.097-.679-.285-.879-.194-.2-.497-.297-.913-.297h-.177c-.063 0-.12.006-.171.011v2.341zM22.146 28.232v.708h-1.113v2.986h-.834V28.94h-1.113v-.708h3.06zM22.683 31.926v-3.694h2.495v.697h-1.661v.725h1.479v.685h-1.479v.891h1.787v.697h-2.621zM27.599 32c-.599 0-1.056-.166-1.376-.502-.314-.337-.474-.811-.474-1.422 0-.308.046-.577.143-.816s.228-.445.394-.605c.166-.166.365-.291.599-.377.228-.086.48-.126.754-.126a2.484 2.484 0 011.005.205c.063.034.108.057.137.074l-.24.674a1.711 1.711 0 00-.4-.154 2.003 2.003 0 00-.514-.063c-.126 0-.251.023-.377.063-.12.04-.228.108-.325.206s-.171.217-.228.365a1.522 1.522 0 00-.086.542c0 .171.017.331.057.48s.097.274.183.383a.902.902 0 00.325.251c.137.063.297.091.491.091.12 0 .228-.006.325-.023.097-.011.183-.029.257-.051a.885.885 0 00.2-.069c.057-.023.108-.046.154-.069l.228.668c-.12.069-.285.137-.497.194-.211.051-.457.08-.737.08zM31.601 28.232h.834v3.694h-.834v-1.57h-1.399v1.57h-.834v-3.694h.834v1.416h1.399v-1.416z"/><path fill="var(--color11, #262262)" d="M10.591 5.422a2.948 2.948 0 01.634-1.49l-.851-.885L7.753 4.56c-.303.177-.577.502-.748.862h3.585z"/><path fill="var(--color12, #1c75bc)" d="M16.215 15.27l-2.112-6.537c-.177.034-.36.051-.548.051-.36 0-.702-.063-1.022-.183l-2.061 3.985c.291.268.48.657.48 1.085 0 .057-.006.114-.011.171l4.767 1.907c.131-.188.308-.354.508-.48z"/><path fill="var(--color13, #2b3990)" d="M9.484 12.21c.108 0 .211.011.314.034l2.061-3.985a2.978 2.978 0 01-1.262-2.078H6.829V8.99l2.192 3.294a1.5 1.5 0 01.462-.074z"/><path fill="var(--color12, #1c75bc)" d="M17.083 15.031c.126 0 .251.017.371.04l2.541-5.281a2.16 2.16 0 01-.902-1.764c0-.074.006-.154.011-.228l-2.809-.811A2.984 2.984 0 0114.828 8.5l2.112 6.537c.046 0 .097-.006.143-.006z"/><path fill="var(--color14, #2ea8e0)" d="M22.506 9.807c-.12.086-.251.16-.394.217l.565 2.444a1.215 1.215 0 01.971 1.753l1.639 1.639c.194-.314.32-.674.32-.993v-1.953l-3.1-3.106zM15.398 16.715c0-.086.006-.171.017-.257l-4.762-1.907c-.114.148-.251.28-.411.377l1.051 3.603 2.181 1.256 2.181-2.181a1.69 1.69 0 01-.257-.891zM21.935 12.638l-.565-2.444h-.108c-.2 0-.4-.028-.582-.08l-2.541 5.281c.069.057.137.12.194.183l3.043-1.684c-.011-.074-.023-.148-.023-.228 0-.428.234-.816.582-1.028z"/><path fill="var(--color12, #1c75bc)" d="M25.001 4.828l-1.958 1.958c.246.354.394.782.394 1.245s-.143.891-.394 1.245l2.564 2.563V6.193c0-.463-.251-1.005-.605-1.365z"/><path fill="var(--color15, #5dcbec)" d="M17.973 18.142c-.257.16-.565.257-.891.257s-.634-.091-.891-.257l-2.038 2.038 1.119.645c.52.297 1.364.297 1.878 0l2.221-1.285-1.399-1.399z"/><path fill="var(--color12, #1c75bc)" d="M9.512 15.139h-.028a1.467 1.467 0 01-1.102-2.438L6.823 10.36v4.499c0 .599.423 1.33.942 1.627l2.581 1.49-.834-2.838z"/><path fill="var(--color15, #5dcbec)" d="M23.111 14.756a1.25 1.25 0 01-.548.131 1.2 1.2 0 01-.822-.32l-3.043 1.684c.04.148.063.303.063.462 0 .325-.091.634-.257.891l1.547 1.547 4.607-2.66c.034-.023.074-.046.108-.069l-1.656-1.667z"/><path fill="var(--color13, #2b3990)" d="M16.54 5.804c0 .154-.011.308-.034.457l2.809.811a2.17 2.17 0 011.382-1.136l-.348-3.865L17.386.358l-1.947 3.129a2.977 2.977 0 011.102 2.318z"/><path fill="var(--color11, #262262)" d="M11.778 3.406a3.002 3.002 0 013.02-.32L16.682.049c-.474-.103-1.028-.046-1.405.177l-4.213 2.432.714.748z"/><path fill="var(--color13, #2b3990)" d="M24.368 4.389l-3.214-1.856.297 3.334c.388.034.754.171 1.056.383l1.861-1.861z"/><path fill="var(--color3, #000)" d="M10.939 13.849l4.767 1.907c.137-.194.308-.36.514-.48l-1.873-5.795a18.477 18.477 0 00-3.768 3.226c.228.257.371.599.371.976 0 .051-.006.108-.011.166zM17.083 15.03c.126 0 .251.017.371.04l2.541-5.281a2.16 2.16 0 01-.902-1.764c0-.074.006-.154.011-.228l-.845-.245c-1.136.4-2.227.908-3.249 1.507l1.93 5.972c.046.006.097 0 .143 0zM22.112 10.029l.565 2.444a1.215 1.215 0 01.971 1.753l1.639 1.639c.194-.314.32-.674.32-.993v-1.953l-3.1-3.1c-.12.074-.251.148-.394.211zM15.398 16.715c0-.086.006-.171.017-.257l-4.762-1.907c-.114.148-.251.28-.411.377l1.051 3.603 2.181 1.256 2.181-2.181a1.69 1.69 0 01-.257-.891zM18.333 15.59l3.043-1.684c-.011-.074-.023-.148-.023-.228 0-.44.234-.822.582-1.039l-.565-2.444h-.108c-.2 0-.4-.028-.582-.08l-2.541 5.281c.069.063.131.126.194.194zM23.437 8.031c0 .463-.143.891-.394 1.245l2.564 2.563v-5.27a17.56 17.56 0 00-1.239-.04c-.365 0-.731.011-1.09.034l-.228.228c.24.348.388.776.388 1.239zM17.083 18.399a1.64 1.64 0 01-.891-.257l-2.038 2.038 1.119.645c.52.297 1.365.297 1.878 0l2.221-1.285-1.404-1.404a1.568 1.568 0 01-.885.263zM9.512 15.139h-.028c-.234 0-.457-.057-.651-.154a19.284 19.284 0 00-.919 1.587l2.426 1.404-.828-2.838zM22.569 14.888a1.2 1.2 0 01-.822-.32l-3.043 1.684c.04.148.063.303.063.462 0 .325-.091.634-.257.891l1.547 1.547 4.607-2.66c.034-.023.074-.046.108-.069l-1.661-1.661a1.24 1.24 0 01-.542.126z"/></symbol><symbol id="icon-planet" viewBox="0 0 30 32"><path fill="none" stroke="var(--color2, #fff)" stroke-linejoin="round" stroke-linecap="round" stroke-width="2.133" d="M14.975 29.867c7.092 0 12.841-6.208 12.841-13.867S22.067 2.133 14.975 2.133 2.134 8.341 2.134 16s5.749 13.867 12.841 13.867zM2.133 16h25.683"/><path fill="none" stroke="var(--color2, #fff)" stroke-linejoin="round" stroke-linecap="round" stroke-width="2.133" d="M14.975 2.133C18.187 5.93 20.012 10.858 20.112 16c-.099 5.142-1.925 10.07-5.137 13.867C11.763 26.07 9.938 21.142 9.838 16c.099-5.142 1.925-10.069 5.137-13.867v0z"/></symbol><symbol id="icon-plus" viewBox="0 0 32 32"><path stroke-linejoin="round" stroke-linecap="round" stroke-width="3.2" d="M14.4 27.2c7.069 0 12.8-5.731 12.8-12.8S21.469 1.6 14.4 1.6C7.331 1.6 1.6 7.331 1.6 14.4s5.731 12.8 12.8 12.8zM30.4 30.4l-6.96-6.96M14.4 9.6v9.6M9.6 14.4h9.6"/></symbol><symbol id="icon-point" viewBox="0 0 32 32"><path fill="var(--color10, #247cc0)" d="M32 16c0 8.837-7.163 16-16 16S0 24.837 0 16 7.163 0 16 0s16 7.163 16 16z"/><path fill="none" stroke="var(--color2, #fff)" stroke-linejoin="round" stroke-linecap="round" stroke-width="1.778" d="M23.273 11.636l-10 10.182-4.545-4.628"/></symbol><symbol id="icon-profile" viewBox="0 0 32 32"><path fill="var(--color6, #f4f9fc)" d="M32 16c0 8.837-7.163 16-16 16S0 24.837 0 16 7.163 0 16 0s16 7.163 16 16z"/><path fill="var(--color4, #030d15)" d="M15.959 16.468c-4.395 0-6.816 2.079-6.816 5.855 0 .295.239.534.534.534h12.564a.534.534 0 00.534-.534c0-3.775-2.421-5.855-6.816-5.855zm-5.729 5.321c.21-2.823 2.135-4.253 5.729-4.253s5.519 1.43 5.729 4.253H10.23zM15.959 8.229c-2.019 0-3.541 1.553-3.541 3.613 0 2.12 1.589 3.844 3.541 3.844s3.541-1.724 3.541-3.844c0-2.06-1.522-3.613-3.541-3.613zm0 6.388c-1.364 0-2.474-1.245-2.474-2.776 0-1.475 1.04-2.545 2.474-2.545 1.41 0 2.474 1.094 2.474 2.545 0 1.531-1.11 2.776-2.474 2.776z"/></symbol><symbol id="icon-search" viewBox="0 0 32 32"><path stroke-linejoin="round" stroke-linecap="round" stroke-width="2.844" d="M14.42 27.062c6.982 0 12.642-5.66 12.642-12.642S21.402 1.778 14.42 1.778c-6.982 0-12.642 5.66-12.642 12.642s5.66 12.642 12.642 12.642zM30.222 30.222l-6.874-6.874"/></symbol><symbol id="icon-star4" viewBox="0 0 173 32"><path fill="var(--color5, #c72535)" d="M16.508 0l5.101 10.334 11.407 1.667-8.254 8.039 1.948 11.358-10.202-5.365-10.202 5.365L8.254 20.04 0 12.001l11.407-1.667L16.508 0zM51.587 0l5.101 10.334 11.407 1.667-8.254 8.039 1.948 11.358-10.202-5.365-10.202 5.365 1.948-11.358-8.254-8.039 11.407-1.667L51.587 0zM86.667 0l5.101 10.334 11.407 1.667-8.254 8.039 1.948 11.358-10.202-5.365-10.202 5.365 1.948-11.358-8.254-8.039 11.407-1.667L86.667 0zM121.746 0l5.101 10.334 11.407 1.667L130 20.04l1.948 11.358-10.202-5.365-10.202 5.365 1.948-11.358-8.254-8.039 11.407-1.667L121.746 0z"/><path fill="var(--color6, #f4f9fc)" d="M156.825 0l5.101 10.334 11.407 1.667-8.254 8.039 1.948 11.358-10.202-5.365-10.202 5.365 1.948-11.358-8.254-8.039 11.407-1.667L156.825 0z"/></symbol><symbol id="icon-star5" viewBox="0 0 173 32"><path fill="var(--color5, #c72535)" d="M16.508 0l5.101 10.334 11.407 1.667-8.254 8.039 1.948 11.358-10.202-5.365-10.202 5.365L8.254 20.04 0 12.001l11.407-1.667L16.508 0zM51.587 0l5.101 10.334 11.407 1.667-8.254 8.039 1.948 11.358-10.202-5.365-10.202 5.365 1.948-11.358-8.254-8.039 11.407-1.667L51.587 0zM86.667 0l5.101 10.334 11.407 1.667-8.254 8.039 1.948 11.358-10.202-5.365-10.202 5.365 1.948-11.358-8.254-8.039 11.407-1.667L86.667 0zM121.746 0l5.101 10.334 11.407 1.667L130 20.04l1.948 11.358-10.202-5.365-10.202 5.365 1.948-11.358-8.254-8.039 11.407-1.667L121.746 0zM156.825 0l5.101 10.334 11.407 1.667-8.254 8.039 1.948 11.358-10.202-5.365-10.202 5.365 1.948-11.358-8.254-8.039 11.407-1.667L156.825 0z"/></symbol><symbol id="icon-twitter" viewBox="0 0 40 32"><path fill="none" stroke="var(--color2, #fff)" stroke-linejoin="round" stroke-linecap="round" stroke-width="1.882" d="M36.971 1.898a17.157 17.157 0 01-4.941 2.408 7.052 7.052 0 00-7.833-1.96 7.05 7.05 0 00-4.535 6.681v1.574A16.778 16.778 0 015.5 3.473s-6.294 14.162 7.868 20.456a18.313 18.313 0 01-11.015 3.147c14.162 7.868 31.471 0 31.471-18.096a7.152 7.152 0 00-.126-1.306 12.149 12.149 0 003.273-5.775v0z"/></symbol><symbol id="icon-youtube" viewBox="0 0 43 32"><path fill="none" stroke="var(--color2, #fff)" stroke-linejoin="round" stroke-linecap="round" stroke-width="2.133" d="M38.963 6.357a4.855 4.855 0 00-3.386-3.491c-3.002-.733-15.01-.733-15.01-.733s-12.008 0-15.01.803a4.849 4.849 0 00-3.386 3.491 50.68 50.68 0 00-.803 9.233c-.02 3.119.249 6.233.803 9.303a4.855 4.855 0 003.386 3.351c3.002.803 15.01.803 15.01.803s12.008 0 15.01-.803a4.84 4.84 0 003.386-3.49 50.64 50.64 0 00.803-9.163 50.558 50.558 0 00-.803-9.303v0z"/><path fill="none" stroke="var(--color2, #fff)" stroke-linejoin="round" stroke-linecap="round" stroke-width="2.133" d="M16.64 21.367l10.036-5.707L16.64 9.953v11.415z"/></symbol></defs></svg>